<svg width="48" height="48" viewBox="0 0 48 48" fill="none" xmlns="http://www.w3.org/2000/svg">
<path d="M27.6002 15.4564V16.9539C27.6002 17.4591 27.2112 17.8595 26.7208 17.8595H25.0802C24.9703 18.5474 24.7927 19.2179 24.5559 19.8709L25.9851 20.7155C26.3994 20.9593 26.5432 21.5166 26.3064 21.9432L25.5791 23.2406C25.3424 23.6672 24.8011 23.8153 24.3783 23.5714L22.9577 22.7182C22.5264 23.258 22.0529 23.7455 21.5286 24.1896L22.3572 25.6611C22.594 26.0878 22.4503 26.6451 22.0359 26.8889L20.7675 27.6376C20.3532 27.8901 19.8204 27.7422 19.5752 27.3068L18.7549 25.8353C18.1292 26.0791 17.478 26.2619 16.8015 26.3751V28.0729C16.8015 28.5693 16.4125 28.9698 15.9305 28.9698H14.476C13.9941 28.9698 13.5966 28.5694 13.5966 28.0729V26.3751C12.9286 26.2619 12.2774 26.0791 11.6517 25.8353L10.823 27.3068C10.5862 27.7422 10.0534 27.8901 9.63063 27.6376L8.37067 26.8889C7.9563 26.6451 7.81258 26.0878 8.04935 25.6611L8.87809 24.1896C8.35372 23.7455 7.88018 23.258 7.44896 22.7182L6.01982 23.5714C5.60545 23.8152 5.07274 23.6671 4.82745 23.2406L4.1002 21.9432C3.86343 21.5166 4.00723 20.9593 4.42151 20.7155L5.85065 19.8709C5.61388 19.2179 5.43628 18.5474 5.32637 17.8595H3.67757C3.1956 17.8595 2.80652 17.4591 2.80652 16.9539V15.4564C2.80652 14.9601 3.19552 14.5595 3.67757 14.5595H5.32654C5.43645 13.863 5.61405 13.1925 5.85082 12.5482L4.42168 11.7036C4.00731 11.4598 3.86351 10.9025 4.10037 10.4759L4.82762 9.16984C5.07291 8.74317 5.60562 8.59528 6.01999 8.83899L7.44912 9.69241C7.87192 9.16116 8.35389 8.66489 8.87826 8.22954L8.04952 6.758C7.81275 6.32266 7.95655 5.77422 8.37084 5.52166L9.6308 4.77274C10.0536 4.52903 10.5864 4.6771 10.8232 5.10376L11.6518 6.5839C12.2776 6.33134 12.9287 6.14855 13.5967 6.03538V4.34616C13.5967 3.84121 13.9942 3.44067 14.4762 3.44067H15.9306C16.4126 3.44067 16.8017 3.84113 16.8017 4.34616V6.03538C17.4782 6.14855 18.1293 6.33142 18.7551 6.5839L19.5753 5.10376C19.8205 4.6771 20.3533 4.52903 20.7677 4.77274L22.0361 5.52166C22.4505 5.77422 22.5942 6.32266 22.3574 6.758L21.5288 8.22954C22.053 8.66489 22.5266 9.16116 22.9579 9.69241L24.3785 8.83899C24.8013 8.59528 25.3425 8.74326 25.5793 9.16984L26.3066 10.4759C26.5433 10.9025 26.3995 11.4598 25.9852 11.7036L24.5561 12.5482C24.7929 13.1925 24.9705 13.863 25.0804 14.5595H26.7209C27.2112 14.5596 27.6002 14.9602 27.6002 15.4564Z" fill="#EBFFFC"/>
<path d="M39.5059 33.772V34.9674C39.5059 35.3707 39.1953 35.6903 38.8038 35.6903H37.4943C37.4065 36.2394 37.2648 36.7747 37.0758 37.2959L38.2166 37.9701C38.5473 38.1648 38.662 38.6096 38.4731 38.9502L37.8925 39.9859C37.7035 40.3264 37.2715 40.4446 36.934 40.25L35.8 39.5688C35.4557 39.9997 35.0777 40.3889 34.6592 40.7435L35.3207 41.9181C35.5098 42.2587 35.395 42.7036 35.0642 42.8982L34.0516 43.4959C33.7208 43.6975 33.2955 43.5794 33.0998 43.2318L32.4451 42.0571C31.9455 42.2518 31.4257 42.3977 30.8857 42.488V43.8434C30.8857 44.2396 30.5752 44.5593 30.1904 44.5593H29.0294C28.6446 44.5593 28.3273 44.2396 28.3273 43.8434V42.488C27.794 42.3977 27.2743 42.2517 26.7748 42.0571L26.1133 43.2318C25.9242 43.5794 25.499 43.6975 25.1615 43.4959L24.1556 42.8982C23.8249 42.7036 23.7102 42.2587 23.8992 41.9181L24.5607 40.7435C24.1422 40.389 23.7642 39.9997 23.42 39.5688L22.2792 40.25C21.9483 40.4446 21.5232 40.3264 21.3274 39.9859L20.7469 38.9502C20.5578 38.6096 20.6726 38.1647 21.0034 37.9701L22.1442 37.2959C21.9551 36.7747 21.8134 36.2394 21.7257 35.6903H20.4093C20.0245 35.6903 19.714 35.3706 19.714 34.9674V33.772C19.714 33.3759 20.0245 33.056 20.4093 33.056H21.7257C21.8134 32.5 21.9552 31.9648 22.1442 31.4505L21.0034 30.7763C20.6726 30.5816 20.5578 30.1368 20.7469 29.7962L21.3274 28.7536C21.5232 28.4131 21.9484 28.2949 22.2792 28.4895L23.42 29.1707C23.7575 28.7467 24.1422 28.3506 24.5607 28.003L23.8992 26.8283C23.7102 26.4807 23.8249 26.0429 24.1556 25.8414L25.1615 25.2435C25.499 25.049 25.9243 25.1672 26.1133 25.5077L26.7748 26.6893C27.2743 26.4877 27.7941 26.3418 28.3273 26.2514V24.903C28.3273 24.4998 28.6446 24.1802 29.0294 24.1802H30.1904C30.5752 24.1802 30.8857 24.4999 30.8857 24.903V26.2514C31.4257 26.3418 31.9455 26.4878 32.4451 26.6893L33.0998 25.5077C33.2955 25.1672 33.7209 25.049 34.0516 25.2435L35.0642 25.8414C35.395 26.043 35.5097 26.4807 35.3207 26.8283L34.6592 28.003C35.0777 28.3505 35.4557 28.7467 35.8 29.1707L36.934 28.4895C37.2715 28.2949 37.7036 28.4131 37.8925 28.7536L38.4731 29.7962C38.662 30.1368 38.5473 30.5817 38.2166 30.7763L37.0758 31.4505C37.2648 31.9648 37.4065 32.5 37.4943 33.056H38.8038C39.1954 33.056 39.5059 33.3759 39.5059 33.772Z" fill="#EBFFFC"/>
<path d="M33.1233 34.3704C33.1233 36.369 31.5511 37.988 29.6111 37.988C27.6711 37.988 26.0978 36.369 26.0978 34.3704C26.0978 32.3729 27.6711 30.754 29.6111 30.754C31.5511 30.754 33.1233 32.3729 33.1233 34.3704Z" fill="white"/>
<path d="M43.95 12.1339V13.0877C43.95 13.4093 43.7023 13.6644 43.39 13.6644H42.3452C42.2752 14.1024 42.1621 14.5294 42.0113 14.9453L42.9214 15.4832C43.1853 15.6385 43.2769 15.9933 43.1261 16.2651L42.663 17.0912C42.5122 17.363 42.1675 17.4572 41.8982 17.302L40.9935 16.7586C40.7189 17.1024 40.4173 17.4128 40.0835 17.6957L40.6112 18.6327C40.762 18.9045 40.6705 19.2594 40.4066 19.4146L39.5989 19.8915C39.335 20.0523 38.9957 19.958 38.8395 19.6808L38.3172 18.7437C37.9186 18.8989 37.504 19.0154 37.0732 19.0874V20.1687C37.0732 20.4848 36.8255 20.7399 36.5185 20.7399H35.5922C35.2853 20.7399 35.0321 20.4848 35.0321 20.1687V19.0874C34.6067 19.0153 34.192 18.8989 33.7936 18.7437L33.2658 19.6808C33.115 19.958 32.7758 20.0523 32.5065 19.8915L31.7041 19.4146C31.4403 19.2594 31.3487 18.9045 31.4995 18.6327L32.0272 17.6957C31.6933 17.4129 31.3917 17.1024 31.1171 16.7586L30.207 17.302C29.9431 17.4572 29.6039 17.363 29.4477 17.0912L28.9846 16.2651C28.8338 15.9933 28.9253 15.6385 29.1892 15.4832L30.0993 14.9453C29.9485 14.5294 29.8354 14.1025 29.7654 13.6644H28.7154C28.4084 13.6644 28.1606 13.4093 28.1606 13.0877V12.1339C28.1606 11.8179 28.4084 11.5627 28.7154 11.5627H29.7654C29.8355 11.1192 29.9485 10.6922 30.0993 10.2819L29.1892 9.74404C28.9254 9.58877 28.8338 9.23388 28.9846 8.96214L29.4477 8.13042C29.6039 7.85868 29.9431 7.76451 30.207 7.91969L31.1171 8.46318C31.3863 8.12487 31.6933 7.80886 32.0272 7.53156L31.4995 6.59439C31.3487 6.31718 31.4402 5.96785 31.7041 5.80702L32.5065 5.33011C32.7757 5.17492 33.115 5.26918 33.2658 5.54092L33.7936 6.48356C34.1921 6.32274 34.6067 6.20635 35.0321 6.13423V5.05845C35.0321 4.73689 35.2853 4.48181 35.5922 4.48181H36.5185C36.8255 4.48181 37.0732 4.73689 37.0732 5.05845V6.13423C37.504 6.20635 37.9186 6.32274 38.3172 6.48356L38.8395 5.54092C38.9957 5.26918 39.335 5.17492 39.5989 5.33011L40.4066 5.80702C40.6705 5.96785 40.7621 6.31709 40.6112 6.59439L40.0835 7.53156C40.4173 7.80877 40.7189 8.12487 40.9935 8.46318L41.8982 7.91969C42.1674 7.76451 42.5121 7.85868 42.663 8.13042L43.1261 8.96214C43.2769 9.23388 43.1853 9.58877 42.9214 9.74404L42.0113 10.2819C42.1621 10.6922 42.2752 11.1192 42.3452 11.5627H43.39C43.7024 11.5627 43.95 11.8178 43.95 12.1339Z" fill="#EBFFFC"/>
<path d="M38.8575 12.6113C38.8575 14.2057 37.6031 15.4973 36.0555 15.4973C34.5078 15.4973 33.2527 14.2057 33.2527 12.6113C33.2527 11.0177 34.5078 9.7262 36.0555 9.7262C37.6031 9.7262 38.8575 11.0178 38.8575 12.6113Z" fill="white"/>
<path d="M20.1739 16.2031C20.1739 19.0322 17.9483 21.3238 15.2008 21.3238C12.4572 21.3238 10.2317 19.0323 10.2317 16.2031C10.2317 13.3781 12.4572 11.0865 15.2008 11.0865C17.9483 11.0865 20.1739 13.3782 20.1739 16.2031Z" fill="white"/>
<path d="M13.9768 18.0408C14.144 18.2129 14.4149 18.2129 14.582 18.0408L17.5424 14.9926C17.7095 14.8205 17.7095 14.5415 17.5424 14.3694C17.3752 14.1973 17.1043 14.1973 16.9372 14.3694L14.2794 17.106L13.4698 16.2729C13.3027 16.1007 13.0318 16.1007 12.8646 16.2729C12.6975 16.445 12.6975 16.7241 12.8646 16.896L13.9768 18.0408Z" fill="#16645F"/>
<path d="M43.3902 11.122H42.6993C42.6538 10.9073 42.5982 10.6936 42.5326 10.4821L43.134 10.1266C43.6038 9.84989 43.7672 9.2295 43.4977 8.74278L43.035 7.91176C42.7683 7.43015 42.1639 7.26152 41.6829 7.53908L41.0832 7.89926C40.9357 7.73375 40.7852 7.57883 40.6326 7.4358L40.9846 6.80986C41.2508 6.32036 41.0932 5.71334 40.6197 5.42459L39.8113 4.9475C39.3465 4.67358 38.7456 4.83944 38.4676 5.32252L38.1236 5.94394C37.92 5.87573 37.7123 5.8174 37.5013 5.76984V5.05824C37.5013 4.49749 37.0604 4.04114 36.5187 4.04114H35.5925C35.0475 4.04114 34.6045 4.49749 34.6045 5.05824V5.77045C34.3951 5.81818 34.1886 5.87633 33.9859 5.94429L33.6378 5.32217C33.3711 4.8417 32.7705 4.67298 32.2928 4.94819L31.4862 5.42762C31.0184 5.71291 30.8605 6.31975 31.1292 6.8155L31.4782 7.43501C31.321 7.58134 31.1702 7.73627 31.0259 7.89874L30.4195 7.53699C29.9556 7.26351 29.3546 7.4285 29.0766 7.91098L28.6131 8.7433C28.3435 9.22898 28.5065 9.84928 28.9763 10.1261L29.5785 10.482C29.5129 10.6935 29.4573 10.9072 29.4118 11.1219H28.7155C28.1738 11.1219 27.7329 11.5757 27.7329 12.1336V13.0875C27.7329 13.6485 28.1738 14.1049 28.7155 14.1049H29.4126C29.4582 14.3181 29.5138 14.5318 29.5794 14.7442L28.9771 15.1003C28.5065 15.3774 28.3435 15.9978 28.6139 16.4851L29.0795 17.3155C29.3541 17.7927 29.9547 17.9571 30.422 17.683L31.0259 17.3224C31.1706 17.4858 31.321 17.6409 31.4794 17.7895L31.1275 18.4142C30.8588 18.8998 31.0222 19.5201 31.4903 19.7961L32.2919 20.2724C32.7832 20.5652 33.3804 20.371 33.6365 19.9015L33.9867 19.2792C34.1907 19.3464 34.3971 19.4038 34.6045 19.4509V20.1683C34.6045 20.7263 35.0475 21.1803 35.5925 21.1803H36.5187C37.0604 21.1803 37.5013 20.7263 37.5013 20.1683V19.4516C37.7102 19.4044 37.9176 19.347 38.1227 19.2796L38.4693 19.9019C38.7537 20.4045 39.3632 20.5471 39.8117 20.2736L40.6197 19.7969C41.0894 19.52 41.2524 18.8994 40.9816 18.4114L40.6318 17.7897C40.7898 17.641 40.9402 17.4861 41.0849 17.323L41.6896 17.6862C42.1636 17.9593 42.7675 17.7908 43.0342 17.3112L43.4986 16.483C43.7673 15.9973 43.6039 15.377 43.135 15.1007L42.5319 14.7441C42.5974 14.5317 42.6531 14.3181 42.6986 14.1048H43.3903C43.9353 14.1048 44.3783 13.6485 44.3783 13.0875V12.1335C44.3782 11.5758 43.9352 11.122 43.3902 11.122ZM43.5223 13.0876C43.5223 13.1651 43.4655 13.2236 43.3902 13.2236H42.3453C42.1355 13.2236 41.9571 13.38 41.9232 13.5928C41.8596 13.9905 41.7548 14.3937 41.6106 14.7913C41.5378 14.9934 41.6172 15.2202 41.7986 15.3274L42.7094 15.8655C42.7666 15.8993 42.7884 15.9858 42.7557 16.0446L42.2918 16.8724C42.2579 16.9335 42.1714 16.9542 42.1142 16.9213L41.2094 16.3777C41.0284 16.2688 40.7968 16.3117 40.6631 16.4784C40.4044 16.8025 40.126 17.0893 39.8121 17.355C39.6499 17.492 39.6085 17.7296 39.7135 17.9163L40.2397 18.8511C40.2736 18.912 40.2518 18.998 40.1942 19.032L39.3809 19.5121C39.3199 19.5486 39.2452 19.5221 39.2108 19.4613L38.6887 18.5242C38.5842 18.3364 38.3627 18.2552 38.1663 18.3312C37.7877 18.4786 37.3968 18.5866 37.0048 18.6522C36.7975 18.6869 36.6454 18.871 36.6454 19.0871V20.1684C36.6454 20.2415 36.5898 20.299 36.5188 20.299H35.5926C35.5211 20.299 35.4605 20.2392 35.4605 20.1684V19.0871C35.4605 18.8713 35.3088 18.6874 35.102 18.6522C34.712 18.5862 34.3224 18.4781 33.9451 18.3312C33.7448 18.254 33.5267 18.3393 33.4235 18.5225L32.8931 19.4652C32.8587 19.5277 32.7851 19.5477 32.7209 19.5096L31.9172 19.0319C31.8596 18.9981 31.8378 18.9116 31.87 18.8537L32.3979 17.9166C32.5029 17.7298 32.4615 17.492 32.2993 17.355C31.9854 17.0892 31.7071 16.8024 31.4483 16.4784C31.3146 16.3118 31.0847 16.2683 30.9029 16.377L29.9951 16.9193C29.9336 16.955 29.8538 16.9313 29.8187 16.8707L29.3565 16.0463C29.3226 15.9857 29.3448 15.8994 29.4029 15.8651L30.3128 15.3274C30.4942 15.2202 30.5736 14.9934 30.5008 14.7913C30.3566 14.3937 30.2517 13.9904 30.1882 13.5928C30.1543 13.38 29.9759 13.2236 29.7661 13.2236H28.7157C28.6447 13.2236 28.5891 13.1638 28.5891 13.0876V12.1337C28.5891 12.0618 28.6459 12.0033 28.7157 12.0033H29.7661C29.9759 12.0033 30.1547 11.8465 30.1886 11.6333C30.2517 11.2305 30.3566 10.8281 30.5 10.4373C30.5744 10.2351 30.4949 10.0072 30.3128 9.89953L29.402 9.36134C29.3448 9.32758 29.3226 9.24131 29.3561 9.18125L29.8162 8.355C29.8542 8.28938 29.9349 8.26743 29.9926 8.30101L30.9029 8.84433C31.0851 8.95255 31.3158 8.90907 31.4487 8.74235C31.7046 8.42105 31.9896 8.12908 32.2964 7.87478C32.4606 7.73817 32.5036 7.49863 32.3979 7.31038L31.8734 6.37955C31.8362 6.31072 31.858 6.22567 31.9186 6.18869L32.716 5.71464C32.7813 5.67828 32.8607 5.69789 32.8958 5.76116L33.4232 6.70363C33.5289 6.89257 33.7534 6.97363 33.9499 6.89387C34.3176 6.74563 34.7055 6.63628 35.1022 6.56919C35.3091 6.53412 35.4608 6.35013 35.4608 6.13428V5.05833C35.4608 4.98343 35.5201 4.92259 35.5929 4.92259H36.519C36.5914 4.92259 36.6456 4.98091 36.6456 5.05833V6.13419C36.6456 6.35021 36.7978 6.53438 37.0051 6.5691C37.4037 6.63602 37.7929 6.74511 38.1619 6.89378C38.3584 6.97294 38.5841 6.89188 38.6898 6.70189L39.2081 5.76568C39.2457 5.7005 39.3268 5.67706 39.3866 5.71256L40.189 6.18618C40.2538 6.22575 40.2755 6.31055 40.2413 6.37356L39.7138 7.31064C39.6081 7.49872 39.6511 7.73817 39.8154 7.87487C40.1063 8.11606 40.3926 8.40916 40.6655 8.74573C40.7997 8.91055 41.0291 8.95229 41.2097 8.84389L42.1083 8.30423C42.1719 8.26803 42.2579 8.28834 42.2926 8.34988L42.7549 9.18047C42.7888 9.24139 42.767 9.32784 42.709 9.36203L41.799 9.89979C41.6168 10.0074 41.5374 10.2352 41.6118 10.4375C41.7552 10.8283 41.8601 11.2307 41.9232 11.6335C41.9571 11.8468 42.136 12.0036 42.3457 12.0036H43.3906C43.4646 12.0036 43.5227 12.0608 43.5227 12.134V13.0876H43.5223Z" fill="#16645F"/>
<path d="M30.1907 23.7394H29.0296C28.4064 23.7394 27.8994 24.2614 27.8994 24.9031V25.8858C27.5826 25.9545 27.2704 26.0422 26.9662 26.1485L26.4851 25.2889C26.18 24.7399 25.4925 24.5478 24.9475 24.8618L23.9377 25.4624C23.4023 25.789 23.2213 26.4834 23.529 27.0492L24.0109 27.905C23.771 28.1234 23.5424 28.3577 23.3271 28.6056L22.4916 28.1068C21.9592 27.7937 21.2716 27.9837 20.9565 28.5343L20.3755 29.5773C20.0648 30.1372 20.2621 30.847 20.7902 31.1585L21.6218 31.6499C21.5199 31.9675 21.4358 32.2906 21.3702 32.6154H20.4093C19.7899 32.6154 19.2863 33.1342 19.2863 33.772V34.9675C19.2863 35.609 19.7899 36.131 20.4093 36.131H21.3707C21.4362 36.4535 21.5207 36.7761 21.6227 37.096L20.791 37.5875C20.2587 37.9012 20.066 38.6113 20.3764 39.1706L20.9594 40.2101C21.2729 40.7557 21.9592 40.9451 22.4942 40.6312L23.3271 40.1339C23.5428 40.3826 23.7697 40.6163 24.0121 40.8394L23.5277 41.6995C23.2197 42.2549 23.4061 42.9643 23.9419 43.2799L24.9467 43.8771C25.5074 44.2114 26.1904 43.9916 26.4839 43.4527L26.967 42.5946C27.2746 42.6994 27.586 42.7862 27.8994 42.8539V43.8433C27.8994 44.4811 28.4064 45.0001 29.0296 45.0001H30.1907C30.8101 45.0001 31.3138 44.481 31.3138 43.8433V42.8546C31.6293 42.787 31.9428 42.7003 32.2516 42.5951L32.7298 43.4527C33.0502 44.0217 33.7463 44.1956 34.2646 43.8781L35.2768 43.2808C35.8143 42.9643 36.0007 42.2549 35.6914 41.6971L35.2083 40.8395C35.4503 40.6165 35.6772 40.3831 35.8929 40.1346L36.725 40.6342C37.2683 40.948 37.9584 40.7551 38.2635 40.2062L38.8448 39.1689C39.1532 38.6131 38.9664 37.9037 38.4298 37.588L37.5977 37.0961C37.6996 36.7761 37.784 36.4536 37.8497 36.1311H38.8043C39.427 36.1311 39.934 35.609 39.934 34.9676V33.7721C39.934 33.1342 39.427 32.6155 38.8043 32.6155H37.8501C37.7845 32.2906 37.7005 31.9676 37.5985 31.6498L38.429 31.159C38.9665 30.8429 39.1533 30.1334 38.8445 29.577L38.2644 28.5351C37.9593 27.9849 37.2693 27.7919 36.7188 28.1089L35.8908 28.6062C35.6693 28.3527 35.4415 28.1186 35.2091 27.9056L35.6948 27.0436C35.9991 26.4835 35.8181 25.7891 35.2772 25.4592L34.2642 24.8611C33.7325 24.5482 33.0446 24.7371 32.7286 25.2895L32.2525 26.148C31.9465 26.0415 31.6327 25.9537 31.3138 25.885V24.9032C31.3138 24.2614 30.8101 23.7394 30.1907 23.7394ZM32.2892 27.0996C32.4861 27.1787 32.7109 27.0977 32.8167 26.9077L33.4683 25.7319C33.5456 25.5983 33.712 25.5511 33.839 25.6259L34.8463 26.2206C34.9788 26.3015 35.0234 26.4739 34.9508 26.6073L34.2892 27.7822C34.1834 27.9703 34.2265 28.2097 34.3908 28.3462C34.7623 28.6547 35.1259 29.0272 35.4716 29.4533C35.6058 29.6176 35.8352 29.6597 36.0158 29.5514L37.1434 28.874C37.2768 28.797 37.449 28.8422 37.5216 28.973L38.1017 30.0149C38.1745 30.1464 38.1301 30.3198 38.0035 30.3943L36.8629 31.0684C36.6807 31.176 36.6013 31.4041 36.6757 31.6066C36.8575 32.1013 36.9909 32.6129 37.0719 33.127C37.1058 33.3402 37.2847 33.4969 37.4945 33.4969H38.8043C38.9578 33.4969 39.0781 33.6178 39.0781 33.7721V34.9676C39.0781 35.1284 38.9603 35.2497 38.8043 35.2497H37.4945C37.2851 35.2497 37.1062 35.4059 37.0724 35.6187C36.9909 36.1265 36.8575 36.6391 36.6753 37.142C36.6017 37.344 36.6815 37.5708 36.8629 37.6782L38.0044 38.3527C38.1301 38.4268 38.1745 38.6002 38.1026 38.7299L37.5212 39.7673C37.4489 39.8974 37.2758 39.9411 37.1501 39.8692L36.0158 39.1882C35.8335 39.0795 35.6024 39.1219 35.4695 39.2891C35.1422 39.699 34.7883 40.0636 34.3874 40.4033C34.2256 40.5404 34.1842 40.7779 34.2892 40.9645L34.9495 42.1368C35.0223 42.268 34.9775 42.4417 34.8517 42.5159L33.8336 43.1167C33.7079 43.1933 33.5467 43.1459 33.4712 43.0124L32.8163 41.8377C32.7118 41.6499 32.4887 41.5688 32.2939 41.645C31.8124 41.8326 31.3154 41.9699 30.8173 42.0532C30.61 42.088 30.4579 42.2722 30.4579 42.4882V43.8434C30.4579 43.9953 30.3379 44.1188 30.1908 44.1188H29.0298C28.8785 44.1188 28.7556 43.9953 28.7556 43.8434V42.4882C28.7556 42.2724 28.6038 42.0885 28.397 42.0533C27.9017 41.9694 27.4068 41.8319 26.9266 41.6449C26.7324 41.5695 26.511 41.6481 26.405 41.8362L25.7405 43.0162C25.6676 43.1497 25.5069 43.193 25.3756 43.1141L24.3683 42.5157C24.2429 42.4416 24.1983 42.268 24.2697 42.1391L24.9313 40.9644C25.0363 40.7778 24.9949 40.5403 24.8331 40.4033C24.4323 40.0635 24.0783 39.6989 23.751 39.289C23.6181 39.1223 23.387 39.079 23.2056 39.1875L22.0671 39.8672C21.9392 39.9426 21.7724 39.895 21.6985 39.7654L21.1188 38.7313C21.0456 38.5994 21.0921 38.4255 21.2166 38.3522L22.3576 37.6781C22.539 37.5709 22.6188 37.344 22.5452 37.1419C22.363 36.639 22.2297 36.1265 22.1482 35.6186C22.1143 35.4058 21.9354 35.2496 21.726 35.2496H20.4095C20.2599 35.2496 20.1425 35.1257 20.1425 34.9675V33.772C20.1425 33.6203 20.2624 33.4968 20.4095 33.4968H21.726C21.9358 33.4968 22.1147 33.3401 22.1486 33.1269C22.2297 32.6128 22.363 32.1011 22.5448 31.6065C22.6192 31.404 22.5398 31.1759 22.3576 31.0683L21.2157 30.3937C21.0936 30.3217 21.0451 30.1481 21.1184 30.0154L21.696 28.9778C21.7729 28.8442 21.9405 28.7966 22.0646 28.8706L23.2057 29.5519C23.3883 29.6604 23.619 29.6166 23.7515 29.4499C24.0759 29.0423 24.4386 28.6709 24.8298 28.346C24.9941 28.2096 25.0371 27.9701 24.9314 27.782L24.2731 26.6129C24.1971 26.4737 24.2417 26.3014 24.37 26.2228L25.3706 25.6279C25.5036 25.5521 25.6699 25.5963 25.743 25.7277L26.4046 26.9092C26.5104 27.0984 26.7344 27.1789 26.9313 27.0995C27.3998 26.9106 27.893 26.7716 28.397 26.6861C28.6038 26.651 28.7556 26.467 28.7556 26.2512V24.9029C28.7556 24.7474 28.8785 24.6206 29.0298 24.6206H30.1908C30.3405 24.6206 30.4579 24.7445 30.4579 24.9029V26.2512C30.4579 26.4672 30.61 26.6514 30.8173 26.6863C31.3242 26.7711 31.8194 26.9103 32.2892 27.0996Z" fill="#16645F"/>
<path d="M3.67778 18.3003H4.97011C5.05996 18.7591 5.17949 19.218 5.32826 19.6719L4.20981 20.3329C3.59155 20.6963 3.37298 21.5211 3.73004 22.1635L4.45982 23.465C4.8226 24.0963 5.6167 24.316 6.2353 23.9527L7.35501 23.2839C7.66014 23.6412 7.98196 23.9727 8.32881 24.2869L7.67809 25.4426C7.32155 26.0854 7.53724 26.9055 8.15703 27.2705L9.41674 28.0189C10.0562 28.4013 10.8504 28.1595 11.1939 27.5278L11.8434 26.374C12.279 26.5266 12.7228 26.6499 13.1692 26.7422V28.0729C13.1692 28.8105 13.7556 29.4104 14.4765 29.4104H15.931C16.6474 29.4104 17.23 28.8105 17.23 28.0729V26.7431C17.6793 26.651 18.1252 26.5277 18.5629 26.3747L19.2052 27.5278C19.5786 28.1904 20.3835 28.3842 20.9807 28.0199L22.2488 27.2714C22.8703 26.9055 23.086 26.0853 22.7281 25.4398L22.0786 24.2869C22.4251 23.973 22.7469 23.6416 23.052 23.2846L24.1696 23.956C24.7986 24.3192 25.5981 24.0958 25.95 23.4608L26.6781 22.162C27.0327 21.5239 26.8176 20.6971 26.1988 20.3332L25.0791 19.6718C25.2278 19.2173 25.3478 18.7584 25.4376 18.3002H26.7212C27.4421 18.3002 28.0286 17.6962 28.0286 16.9538V15.4563C28.0286 14.7187 27.4421 14.1188 26.7212 14.1188H25.4381C25.3486 13.6566 25.2291 13.1974 25.0803 12.7468L26.1979 12.0862C26.8185 11.7213 27.0324 10.8943 26.6776 10.2566L25.9508 8.95152C25.5981 8.31439 24.7981 8.09099 24.1628 8.45837L23.0499 9.12693C22.7356 8.76223 22.4108 8.42869 22.0794 8.13048L22.7313 6.97329C23.0837 6.32479 22.8743 5.52067 22.249 5.13931L20.9801 4.39031C20.3645 4.02795 19.5691 4.24805 19.2038 4.88545L18.5635 6.04116C18.131 5.8858 17.6846 5.76082 17.2298 5.66744V4.34613C17.2298 3.60381 16.6472 3 15.9308 3H14.4763C13.7554 3 13.169 3.60381 13.169 4.34613V5.66796C12.7168 5.76178 12.2729 5.88676 11.8424 6.0415L11.195 4.88493C10.8427 4.2504 10.0461 4.02743 9.41708 4.39109L8.15281 5.14252C7.53303 5.52058 7.32357 6.3247 7.67927 6.97902L8.32755 8.13004C7.9844 8.43711 7.65879 8.77065 7.35501 9.12649L6.23277 8.45646C5.61712 8.09411 4.8226 8.31421 4.45687 8.95074L3.72919 10.2571C3.37425 10.8958 3.5902 11.722 4.20897 12.0859L5.32699 12.7467C5.17864 13.1969 5.05912 13.656 4.9696 14.1189H3.67778C2.9614 14.1189 2.37878 14.7188 2.37878 15.4564V16.9541C2.37878 17.6963 2.96148 18.3003 3.67778 18.3003ZM3.23475 15.4563C3.23475 15.2048 3.43367 15.0002 3.67778 15.0002H5.32708C5.53688 15.0002 5.71574 14.8435 5.74962 14.6301C5.85246 13.9778 6.02129 13.3298 6.25157 12.7043C6.326 12.5021 6.24651 12.2739 6.06436 12.1661L4.63455 11.3211C4.42442 11.1972 4.35302 10.9093 4.47196 10.6952L5.19626 9.39441C5.32244 9.17518 5.59706 9.09681 5.80559 9.22031L7.23456 10.0737C7.41679 10.182 7.6475 10.1387 7.78042 9.97175C8.19209 9.45465 8.65181 8.98389 9.1471 8.57268C9.31138 8.43624 9.35437 8.19679 9.24867 8.00871L8.42322 6.5429C8.30116 6.31889 8.37601 6.031 8.58497 5.90342L9.84005 5.15736C10.0578 5.03239 10.332 5.10659 10.4527 5.32392L11.2816 6.80414C11.3869 6.99308 11.6117 7.07336 11.8086 6.99438C12.4013 6.7551 13.0265 6.57865 13.6665 6.47025C13.8733 6.43519 14.025 6.25119 14.025 6.03534V4.34613C14.025 4.08983 14.2273 3.88136 14.4764 3.88136H15.9309C16.1792 3.88136 16.3739 4.08558 16.3739 4.34613V6.03526C16.3739 6.25128 16.5261 6.43545 16.7334 6.47034C17.377 6.57796 18.0048 6.75415 18.5991 6.9943C18.7955 7.07345 19.0217 6.99239 19.127 6.8024L19.9437 5.32826C20.0703 5.10902 20.3441 5.03134 20.5552 5.15528L21.8182 5.9009C22.0314 6.03109 22.1062 6.31898 21.9875 6.53717L21.1587 8.0088C21.0529 8.19687 21.096 8.43633 21.2602 8.57276C21.7304 8.96332 22.1911 9.43495 22.6294 9.97531C22.7636 10.1395 22.9931 10.1814 23.1736 10.0732L24.5876 9.2237C24.8049 9.09872 25.0887 9.17379 25.2082 9.38938L25.935 10.6949C26.0536 10.9076 25.9849 11.197 25.7724 11.3217L24.3431 12.1663C24.1608 12.2739 24.0814 12.5021 24.1559 12.7045C24.3866 13.3313 24.5554 13.9794 24.6582 14.6303C24.6921 14.8437 24.871 15.0003 25.0808 15.0003H26.7212C26.9745 15.0003 27.1726 15.2006 27.1726 15.4565V16.9542C27.1726 17.215 26.9745 17.4192 26.7212 17.4192H25.0808C24.8714 17.4192 24.6925 17.5754 24.6586 17.7882C24.5558 18.4312 24.3866 19.0799 24.1554 19.7169C24.0818 19.919 24.1617 20.146 24.3431 20.2534L25.7733 21.0984C25.9832 21.2218 26.0541 21.5111 25.9359 21.7233L25.2078 23.0225C25.0883 23.2371 24.8045 23.312 24.5942 23.1912L23.1736 22.3378C22.9926 22.2289 22.7611 22.2713 22.6273 22.4385C22.2115 22.9592 21.763 23.421 21.2569 23.8498C21.0951 23.9869 21.0537 24.2244 21.1587 24.4112L21.9862 25.8798C22.1066 26.0969 22.0322 26.3839 21.8236 26.5068L20.5497 27.2589C20.3408 27.3859 20.0723 27.3102 19.9466 27.0878L19.1265 25.6164C19.0216 25.4288 18.7992 25.347 18.6041 25.4237C17.9955 25.6606 17.3661 25.8346 16.7334 25.9405C16.5261 25.9751 16.3739 26.1593 16.3739 26.3754V28.0734C16.3739 28.3249 16.175 28.5296 15.9309 28.5296H14.4764C14.2273 28.5296 14.025 28.3249 14.025 28.0734V26.3754C14.025 26.1596 13.8733 25.9757 13.6665 25.9405C13.0374 25.834 12.4106 25.6599 11.8037 25.4237C11.611 25.3481 11.3885 25.4259 11.2821 25.6145L10.4504 27.0917C10.3292 27.3136 10.0606 27.3857 9.84519 27.2564L8.58337 26.5067C8.37526 26.384 8.30083 26.097 8.41993 25.8826L9.24875 24.4113C9.35369 24.2245 9.31231 23.9869 9.15055 23.8499C8.64439 23.4211 8.19597 22.9592 7.78008 22.4386C7.64632 22.2716 7.41604 22.229 7.23464 22.3372L5.8082 23.1893C5.5963 23.3135 5.3221 23.2356 5.19887 23.0206L4.47246 21.7248C4.35479 21.5137 4.42105 21.2244 4.63548 21.098L6.06445 20.2534C6.24584 20.1461 6.32566 19.919 6.25208 19.717C6.02137 19.0816 5.85254 18.4326 5.74929 17.7883C5.7154 17.5755 5.53654 17.4193 5.32716 17.4193H3.67778C3.42954 17.4193 3.23475 17.2151 3.23475 16.9543V15.4563Z" fill="#16645F"/>
<path d="M25.67 34.3703C25.67 36.608 27.4379 38.4286 29.6114 38.4286C31.7843 38.4286 33.5518 36.608 33.5518 34.3703C33.5518 32.1334 31.7843 30.3134 29.6114 30.3134C27.4379 30.3134 25.67 32.1334 25.67 34.3703ZM32.6958 34.3703C32.6958 36.1221 31.3119 37.5472 29.6113 37.5472C27.9102 37.5472 26.5259 36.1221 26.5259 34.3703C26.5259 32.6192 27.9102 31.1947 29.6113 31.1947C31.312 31.1948 32.6958 32.6192 32.6958 34.3703Z" fill="#16645F"/>
<path d="M36.0566 9.28552C34.2753 9.28552 32.8258 10.7775 32.8258 12.6113C32.8258 14.4457 34.2753 15.9379 36.0566 15.9379C37.8374 15.9379 39.2865 14.4456 39.2865 12.6113C39.2865 10.7775 37.8374 9.28552 36.0566 9.28552ZM36.0566 15.0566C34.7471 15.0566 33.6818 13.9597 33.6818 12.6114C33.6818 11.2635 34.7471 10.167 36.0566 10.167C37.3656 10.167 38.4305 11.2635 38.4305 12.6114C38.4305 13.9596 37.3656 15.0566 36.0566 15.0566Z" fill="#16645F"/>
<path d="M15.2019 21.7645C18.1802 21.7645 20.6031 19.2698 20.6031 16.2033C20.6031 13.1389 18.1803 10.6459 15.2019 10.6459C12.2261 10.6459 9.80493 13.1389 9.80493 16.2033C9.80493 19.2697 12.2262 21.7645 15.2019 21.7645ZM15.2019 11.5272C17.708 11.5272 19.7472 13.6248 19.7472 16.2033C19.7472 18.7837 17.708 20.8831 15.2019 20.8831C12.698 20.8831 10.6609 18.7837 10.6609 16.2033C10.6609 13.6248 12.698 11.5272 15.2019 11.5272Z" fill="#16645F"/>
</svg>
