<svg width="24" height="24" viewBox="0 0 24 24" fill="none" xmlns="http://www.w3.org/2000/svg">
<path d="M20.4169 21.7105L21.7606 21.7598H2.23944V10.3126H8.56005L13.2964 15.0488H15.0492L10.313 10.3126H10.7866C13.3582 10.3126 15.4431 8.22789 15.4431 5.65632C15.4431 3.08476 13.358 1 10.7864 1H1V22.9992H23L21.6564 21.7105H20.4169ZM2.23944 2.23939H10.7864C12.6736 2.23939 14.2034 3.76918 14.2034 5.65632C14.2034 7.54347 12.6736 9.07325 10.7864 9.07325H2.23944V2.23939Z" fill="#27282D"/>
<path d="M21.7606 21.7598L19.1139 19.1134C19.9901 17.7518 20.4549 16.1664 20.4523 14.5472C20.4523 11.0547 18.3337 8.05765 15.3115 6.76868C15.2126 7.17206 15.0598 7.56028 14.8572 7.92287C17.4196 9.02937 19.2125 11.5789 19.2125 14.5472C19.2146 15.8367 18.8692 17.1029 18.2128 18.2127L16.2883 16.2882H14.5359L17.4823 19.2345C16.1593 20.7802 14.1943 21.7598 12 21.7598C8.01642 21.7598 4.78717 18.5307 4.78717 14.5472C4.78717 10.5638 8.01642 7.33467 12 7.33467C12.5555 7.33427 13.1092 7.39781 13.6502 7.52402C13.8813 7.17136 14.0448 6.77874 14.1322 6.36622C13.4358 6.18571 12.7193 6.09466 12 6.09528C7.33197 6.09528 3.54773 9.87938 3.54773 14.5472C3.54773 17.5998 5.16588 20.2743 7.59156 21.7598H2.23944L1 22.9992H23L21.7606 21.7598ZM16.4084 21.7598C17.1386 21.3125 17.7968 20.7573 18.3609 20.1131L20.0076 21.7598H16.4084Z" fill="#C36F41"/>
</svg>
