<svg width="48" height="48" viewBox="0 0 48 48" fill="none" xmlns="http://www.w3.org/2000/svg">
<path d="M40.4486 8.62354H4.95972V34.5506C4.95972 36.8559 6.8301 38.7244 9.13259 38.7244H40.4486C41.9036 38.7244 43.083 37.5461 43.083 36.0927V11.2552C43.083 9.80172 41.9035 8.62354 40.4486 8.62354Z" fill="white"/>
<path d="M37.9156 23.1038V24.2429C37.9156 24.6271 37.6107 24.9316 37.2261 24.9316H35.94C35.8538 25.4549 35.7146 25.9648 35.529 26.4615L36.6494 27.1039C36.9743 27.2893 37.0869 27.7132 36.9013 28.0378L36.3312 29.0245C36.1456 29.349 35.7213 29.4616 35.3898 29.2762L34.276 28.6272C33.9379 29.0378 33.5666 29.4086 33.1556 29.7464L33.8053 30.8655C33.9909 31.1902 33.8782 31.614 33.5534 31.7995L32.559 32.3689C32.2341 32.561 31.8164 32.4485 31.6241 32.1173L30.9811 30.9981C30.4904 31.1835 29.98 31.3226 29.4496 31.4087V32.7001C29.4496 33.0776 29.1446 33.3822 28.7667 33.3822H27.6265C27.2486 33.3822 26.937 33.0776 26.937 32.7001V31.4087C26.4133 31.3226 25.9028 31.1835 25.4122 30.9981L24.7625 32.1173C24.5769 32.4485 24.1592 32.561 23.8277 32.3689L22.8399 31.7995C22.5151 31.6141 22.4024 31.1902 22.588 30.8655L23.2378 29.7464C22.8267 29.4086 22.4554 29.0378 22.1173 28.6272L20.9969 29.2762C20.672 29.4616 20.2544 29.349 20.0621 29.0245L19.4919 28.0378C19.3063 27.7132 19.419 27.2894 19.7439 27.1039L20.8643 26.4615C20.6787 25.9648 20.5394 25.4549 20.4533 24.9316H19.1605C18.7826 24.9316 18.4777 24.627 18.4777 24.2429V23.1038C18.4777 22.7264 18.7826 22.4216 19.1605 22.4216H20.4533C20.5394 21.8919 20.6787 21.3819 20.8643 20.8918L19.7439 20.2494C19.419 20.064 19.3063 19.6401 19.4919 19.3156L20.0621 18.3222C20.2544 17.9976 20.672 17.8852 20.9969 18.0705L22.1173 18.7196C22.4488 18.3155 22.8266 17.9381 23.2378 17.6069L22.588 16.4876C22.4024 16.1565 22.5151 15.7394 22.8399 15.5473L23.8277 14.9777C24.1592 14.7923 24.5768 14.9049 24.7625 15.2294L25.4122 16.3553C25.9028 16.1632 26.4133 16.0241 26.937 15.9381V14.6533C26.937 14.2692 27.2486 13.9646 27.6265 13.9646H28.7667C29.1446 13.9646 29.4496 14.2693 29.4496 14.6533V15.9381C29.98 16.0241 30.4904 16.1633 30.9811 16.3553L31.6241 15.2294C31.8164 14.9049 32.2341 14.7923 32.559 14.9777L33.5534 15.5473C33.8783 15.7394 33.991 16.1565 33.8053 16.4876L33.1556 17.6069C33.5666 17.9381 33.9379 18.3155 34.276 18.7196L35.3898 18.0705C35.7213 17.8852 36.1456 17.9976 36.3312 18.3222L36.9013 19.3156C37.0869 19.6401 36.9743 20.064 36.6494 20.2494L35.529 20.8918C35.7146 21.3819 35.8538 21.8919 35.94 22.4216H37.2261C37.6107 22.4217 37.9156 22.7264 37.9156 23.1038Z" fill="#EBFFFC"/>
<path d="M30.6619 23.6742C30.6619 25.0341 29.559 26.1357 28.1984 26.1357C26.8378 26.1357 25.7343 25.0341 25.7343 23.6742C25.7343 22.3149 26.8378 21.2133 28.1984 21.2133C29.559 21.2133 30.6619 22.3149 30.6619 23.6742Z" fill="white"/>
<path d="M17.677 40.9716H34.75V44.5602H17.677V40.9716Z" fill="#EBFFFC"/>
<path d="M34.7495 40.9692L36.1482 40.9688C36.5194 40.9687 36.8203 41.2693 36.8204 41.6402L36.8205 43.8856C36.8205 44.2565 36.5197 44.5573 36.1485 44.5574L34.7498 44.5578L34.7495 40.9692Z" fill="white"/>
<path d="M17.6773 40.975L15.9764 42.3132C15.6814 42.5454 15.6814 42.9922 15.9765 43.2242L17.6775 44.5614L17.6773 40.975Z" fill="white"/>
<path d="M13.3123 34.5504C13.3123 32.2494 11.4436 30.3762 9.13372 30.3762C6.83032 30.3762 4.96167 32.2493 4.96167 34.5504V7.6116C4.96167 5.3106 6.83032 3.43738 9.13372 3.43738C11.4436 3.43738 13.3123 5.31052 13.3123 7.6116V34.5504Z" fill="#EBFFFC"/>
<path d="M38.7612 8.62202C38.7612 10.837 36.9652 12.6313 34.7478 12.6313C32.5336 12.6313 30.7375 10.8371 30.7375 8.62202C30.7375 6.41014 32.5336 4.61597 34.7478 4.61597C36.9652 4.61588 38.7612 6.41014 38.7612 8.62202Z" fill="#EBFFFC"/>
<path d="M15.4165 43.2064C15.4829 43.3454 15.5803 43.4694 15.7057 43.5681L17.4071 44.9054C17.4511 44.9401 17.5751 45.0001 17.6778 45.0001C22.3474 44.9987 21.1346 44.9991 36.1494 44.9949C36.7614 44.9949 37.2592 44.4972 37.2592 43.8856V41.6402C37.2592 41.0288 36.761 40.5312 36.149 40.5312C21.1342 40.5354 22.34 40.5351 17.6774 40.5364C17.5863 40.5364 17.4639 40.5858 17.4062 40.6312L15.7052 41.9695C15.5798 42.0682 15.4824 42.1922 15.4161 42.3313L14.9593 42.3314C14.7172 42.3314 14.5214 42.5273 14.5214 42.7691C14.5214 43.0107 14.7177 43.2064 14.9593 43.2064H15.4165ZM36.1491 41.4063C36.2782 41.4063 36.3834 41.5112 36.3834 41.6403V43.8857C36.3834 44.0149 36.2786 44.12 36.1495 44.12L35.1889 44.1203C35.1889 44.0622 35.1885 41.3081 35.1885 41.4066L36.1491 41.4063ZM34.3125 41.4069C34.3125 41.4649 34.313 44.219 34.313 44.1206L18.1158 44.1249C18.1158 44.0669 18.1154 41.3127 18.1154 41.4112L34.3125 41.4069ZM16.2477 42.6571L17.2395 41.8764C17.2395 41.9205 17.2398 43.7781 17.2398 43.6603L16.2473 42.8804C16.1762 42.8243 16.1739 42.7148 16.2477 42.6571Z" fill="#16645F"/>
<path d="M19.1612 25.3692H20.091C20.1543 25.668 20.2348 25.9669 20.3318 26.263L19.5273 26.7242C18.991 27.0305 18.805 27.7171 19.1133 28.2565L19.686 29.2477C19.9991 29.7756 20.6851 29.9591 21.2176 29.6549L22.023 29.1881C22.2295 29.4184 22.4464 29.635 22.6769 29.8415L22.2086 30.6486C21.901 31.1861 22.0871 31.8727 22.6217 32.1786L23.6089 32.7474C24.1703 33.0715 24.8515 32.8565 25.1426 32.3368L25.61 31.5315C25.9034 31.628 26.2006 31.7081 26.5001 31.7714V32.7C26.5001 33.3174 27.006 33.8198 27.6274 33.8198H28.7677C29.3857 33.8198 29.8887 33.3174 29.8887 32.7V31.772C30.1898 31.709 30.4887 31.6287 30.7839 31.5319L31.2462 32.337C31.5688 32.8909 32.263 33.0533 32.7777 32.7484L33.7721 32.1791C34.3081 31.8726 34.4941 31.1861 34.1853 30.6462L33.7183 29.8415C33.9484 29.6351 34.1652 29.4188 34.3713 29.1889L35.1771 29.658C35.7186 29.9609 36.4076 29.7746 36.7116 29.2433L37.2826 28.2547C37.5901 27.717 37.404 27.0304 36.8686 26.7245L36.0632 26.2629C36.1603 25.9662 36.2411 25.6673 36.304 25.3691H37.2269C37.8484 25.3691 38.3543 24.8638 38.3543 24.2429V23.1039C38.3543 22.4865 37.8484 21.9843 37.2269 21.9843H36.3048C36.2416 21.6838 36.1611 21.3846 36.0644 21.0899L36.8677 20.6293C37.404 20.323 37.59 19.6364 37.2821 19.098L36.7124 18.1053C36.4074 17.5728 35.7184 17.3852 35.1701 17.6928L34.3694 18.1591C34.1577 17.925 33.9401 17.7082 33.7189 17.5105L34.1881 16.7015C34.4922 16.1594 34.3117 15.4871 33.772 15.1677L32.7772 14.598C32.2469 14.2951 31.5604 14.4788 31.2447 15.0127L30.7845 15.8182C30.4924 15.7202 30.193 15.6387 29.8885 15.5747V14.6533C29.8885 14.0323 29.3856 13.5271 28.7675 13.5271H27.6273C27.0058 13.5271 26.4999 14.0324 26.4999 14.6533V15.5753C26.1971 15.6395 25.8994 15.7207 25.609 15.8186L25.1437 15.0124C24.8401 14.4809 24.1545 14.2951 23.6096 14.5988L22.6174 15.1709C22.0832 15.4871 21.9027 16.1594 22.2098 16.7071L22.6755 17.5099C22.4475 17.7124 22.2295 17.9292 22.0229 18.1589L21.2149 17.6908C20.6863 17.3887 19.9994 17.5716 19.683 18.1047L19.1124 19.0987C18.8049 19.6364 18.991 20.323 19.5264 20.6289L20.3309 21.0899C20.2339 21.3841 20.1534 21.6831 20.0901 21.9843H19.1612C18.5431 21.9843 18.0406 22.4865 18.0406 23.1039V24.243C18.0407 24.8639 18.5433 25.3692 19.1612 25.3692ZM18.9167 23.1039C18.9167 22.9691 19.0266 22.8593 19.1613 22.8593H20.4542C20.6689 22.8593 20.852 22.7038 20.8867 22.4921C20.9662 22.0027 21.0971 21.5163 21.275 21.0467C21.3511 20.8457 21.2699 20.6193 21.0833 20.5124L19.9619 19.8696C19.849 19.8051 19.8071 19.6477 19.8725 19.5334L20.4397 18.5454C20.5111 18.4257 20.6646 18.3839 20.778 18.4493L21.8986 19.0983C22.085 19.2057 22.3207 19.1624 22.4571 18.997C22.7757 18.6088 23.1312 18.2558 23.5135 17.9477C23.6816 17.8123 23.7257 17.5745 23.6174 17.3878L22.9707 16.274C22.9024 16.1518 22.9442 15.9948 23.0597 15.9265L24.0425 15.3597C24.164 15.2914 24.3167 15.3304 24.3843 15.4482L25.0339 16.574C25.1417 16.7615 25.3727 16.8417 25.5732 16.7629C26.0313 16.5834 26.5146 16.4512 27.009 16.37C27.2207 16.3352 27.3759 16.1526 27.3759 15.9383V14.6535C27.3759 14.5151 27.4888 14.4024 27.6273 14.4024H28.7676C28.9049 14.4024 29.0127 14.5128 29.0127 14.6535V15.9381C29.0127 16.1526 29.1684 16.3354 29.3805 16.3698C29.877 16.4506 30.3625 16.5828 30.8227 16.7627C31.0237 16.8413 31.2546 16.7608 31.3624 16.5722L32.0019 15.4526C32.0728 15.3332 32.2251 15.2912 32.3423 15.3575L33.3311 15.9238C33.4509 15.9947 33.4928 16.1517 33.4273 16.2684L32.7777 17.3878C32.6695 17.5745 32.7135 17.8122 32.8816 17.9476C33.2451 18.2405 33.6014 18.5945 33.9406 19.0001C34.0774 19.1638 34.3127 19.205 34.4974 19.0976L35.6047 18.4525C35.7261 18.3839 35.8857 18.4238 35.9524 18.54L36.5221 19.5327C36.5879 19.6477 36.546 19.8051 36.4323 19.87L35.3118 20.5124C35.1253 20.6192 35.044 20.8457 35.1201 21.0467C35.2989 21.5182 35.4293 22.0044 35.5084 22.4919C35.5431 22.7036 35.7261 22.8593 35.9409 22.8593H37.2269C37.3681 22.8593 37.4784 22.9668 37.4784 23.1039V24.243C37.4784 24.386 37.3702 24.4941 37.2269 24.4941H35.9409C35.7262 24.4941 35.5436 24.6494 35.5089 24.8607C35.4298 25.3422 35.299 25.8293 35.1197 26.3086C35.0445 26.5092 35.1262 26.7344 35.3118 26.8409L36.4332 27.4837C36.5461 27.5483 36.588 27.7057 36.523 27.8189L35.952 28.8076C35.8853 28.9229 35.7262 28.9629 35.6116 28.8983L34.4975 28.2493C34.3105 28.1412 34.0745 28.1837 33.9385 28.3494C33.6168 28.7403 33.27 29.0868 32.8783 29.4085C32.7127 29.5445 32.6704 29.7806 32.7777 29.9658L33.4261 31.0826C33.4919 31.1975 33.4501 31.355 33.3367 31.4199L32.3372 31.9922C32.2207 32.0608 32.0731 32.0173 32.0049 31.8997L31.3621 30.7803C31.2552 30.5941 31.029 30.5135 30.8275 30.5887C30.3557 30.7669 29.869 30.8974 29.3806 30.9769C29.1685 31.0113 29.0128 31.1941 29.0128 31.4086V32.6999C29.0128 32.8349 28.9028 32.9447 28.7677 32.9447H27.6274C27.4888 32.9447 27.376 32.8349 27.376 32.6999V31.4086C27.376 31.1943 27.2208 31.0117 27.0091 30.9769C26.5232 30.897 26.0382 30.7665 25.5681 30.589C25.3702 30.5135 25.1429 30.5918 25.0343 30.7787L24.3817 31.9036C24.316 32.0201 24.1708 32.0612 24.0476 31.9899L23.0584 31.42C22.9451 31.3551 22.9032 31.1976 22.9677 31.0851L23.6174 29.9659C23.7247 29.7806 23.6824 29.5446 23.5168 29.4085C23.125 29.0868 22.7782 28.7403 22.4566 28.3494C22.3207 28.1843 22.0841 28.1413 21.8985 28.2488L20.7805 28.8965C20.6633 28.9632 20.5107 28.9211 20.4422 28.8059L19.873 27.8207C19.8071 27.7057 19.849 27.5483 19.9627 27.4833L21.0833 26.8409C21.2689 26.7343 21.3506 26.5092 21.2753 26.3086C21.097 25.8312 20.9661 25.3439 20.8861 24.8604C20.8515 24.6492 20.6684 24.4941 20.4542 24.4941H19.1612C19.024 24.4941 18.9166 24.3837 18.9166 24.2429V23.1039H18.9167Z" fill="#16645F"/>
<path d="M9.13453 39.1628H40.4485C42.1434 39.1628 43.5227 37.7852 43.5227 36.0918V11.2549C43.5227 9.56384 42.1434 8.18786 40.4485 8.18786H39.1784C38.959 5.94067 37.0568 4.17835 34.7491 4.17835C32.443 4.17835 30.5418 5.94067 30.3227 8.18786H13.7507V7.61173C13.7507 5.06879 11.6798 3 9.13412 3C6.59192 3 4.52403 5.06871 4.52403 7.61173V8.61902C4.52403 8.62125 4.52271 8.62314 4.52271 8.62537V34.5517C4.52271 37.0943 6.59151 39.1628 9.13453 39.1628ZM34.749 5.05328C36.7207 5.05328 38.3245 6.6542 38.3245 8.62182C38.3245 8.6224 38.3244 8.62298 38.3244 8.62356C38.3244 8.62422 38.3241 8.62471 38.3241 8.62529C38.3241 8.62562 38.3243 8.62595 38.3243 8.62628C38.3218 10.5936 36.7192 12.1937 34.749 12.1937C32.7806 12.1937 31.179 10.5937 31.1767 8.62628C31.1767 8.62587 31.177 8.62562 31.177 8.62529C31.177 8.62471 31.1766 8.62422 31.1766 8.62356C31.1766 8.62306 31.1766 8.6224 31.1766 8.62182C31.1765 6.6542 32.7791 5.05328 34.749 5.05328ZM5.39995 7.61165C5.39995 5.55127 7.07523 3.87493 9.13412 3.87493C11.1969 3.87493 12.8747 5.55127 12.8747 7.61165V31.8505C12.0351 30.6931 10.6713 29.9388 9.13412 29.9388C7.60001 29.9388 6.23821 30.6924 5.39995 31.8488V7.61165ZM5.39995 34.5504C5.39995 32.49 7.07523 30.8137 9.13412 30.8137C11.1969 30.8137 12.8747 32.49 12.8747 34.5504C12.8747 34.792 13.0706 34.9879 13.3127 34.9879C13.5548 34.9879 13.7507 34.792 13.7507 34.5504V9.0628H30.3229C30.5452 11.3084 32.445 13.0687 34.749 13.0687C37.0545 13.0687 38.9557 11.3085 39.1781 9.0628H40.4485C41.6605 9.0628 42.6468 10.0461 42.6468 11.2548V36.0917C42.6468 37.3025 41.6605 38.2877 40.4485 38.2877H9.13453C7.07614 38.2877 5.40111 36.6138 5.39888 34.5557C5.39888 34.5539 5.39995 34.5523 5.39995 34.5504Z" fill="#16645F"/>
<path d="M28.1991 26.5733C29.7991 26.5733 31.1005 25.2727 31.1005 23.6742C31.1005 22.0761 29.799 20.7758 28.1991 20.7758C26.5992 20.7758 25.2972 22.0761 25.2972 23.6742C25.2972 25.2727 26.5992 26.5733 28.1991 26.5733ZM28.1991 21.6508C29.3158 21.6508 30.2246 22.5585 30.2246 23.6742C30.2246 24.7904 29.3157 25.6982 28.1991 25.6982C27.082 25.6982 26.1731 24.7903 26.1731 23.6742C26.1732 22.5585 27.082 21.6508 28.1991 21.6508Z" fill="#16645F"/>
<path d="M33.8832 9.82435C34.0543 9.99525 34.3315 9.99516 34.5025 9.82435L36.2877 8.04124C36.4588 7.87034 36.4588 7.5935 36.2877 7.4226C36.1166 7.25171 35.8395 7.25171 35.6684 7.4226L34.1929 8.89636L33.8323 8.53601C33.6612 8.36512 33.3841 8.36512 33.213 8.53601C33.0419 8.70666 33.0419 8.98375 33.213 9.15464L33.8832 9.82435Z" fill="#16645F"/>
</svg>
