<svg width="48" height="49" fill="none" xmlns="http://www.w3.org/2000/svg"><path d="m25.4 2.118 19.02 32.308a1.625 1.625 0 0 1-1.4 2.449H4.98a1.625 1.625 0 0 1-1.4-2.45L22.6 2.119a1.625 1.625 0 0 1 2.8 0Z" stroke="#000" stroke-width=".75"/><path d="m25.4 2.118 19.02 32.308a1.625 1.625 0 0 1-1.4 2.449H4.98a1.625 1.625 0 0 1-1.4-2.45L22.6 2.119a1.625 1.625 0 0 1 2.8 0Z" stroke="#000" stroke-width=".75"/><path d="m22.695 46.679-18.22-32.19A1.5 1.5 0 0 1 5.78 12.25h36.44a1.5 1.5 0 0 1 1.306 2.239l-18.22 32.19a1.5 1.5 0 0 1-2.611 0Z" stroke="#000"/><rect x="3.375" y="12.375" width="41.25" height="24.25" rx="1.625" stroke="#000" stroke-width=".75"/><path d="m24.75 1.51 18.785 10.846a1.5 1.5 0 0 1 .75 1.299v21.69a1.5 1.5 0 0 1-.75 1.3L24.75 47.49a1.5 1.5 0 0 1-1.5 0L4.465 36.644a1.5 1.5 0 0 1-.75-1.299v-21.69a1.5 1.5 0 0 1 .75-1.3L23.25 1.51a1.5 1.5 0 0 1 1.5 0Z" stroke="#000"/></svg>