<svg width="48" height="49" viewBox="0 0 48 49" fill="none" xmlns="http://www.w3.org/2000/svg">
<path d="M24.6508 1.36838L41.6792 9.56883C42.0905 9.7669 42.3892 10.1415 42.4908 10.5865L46.6965 29.0128C46.7981 29.4578 46.6915 29.9249 46.4068 30.2818L34.6228 45.0585C34.3382 45.4154 33.9065 45.6233 33.4501 45.6233H14.5499C14.0935 45.6233 13.6618 45.4154 13.3772 45.0585L1.59316 30.2818C1.30854 29.9249 1.20194 29.4578 1.30352 29.0128L5.50919 10.5865C5.61076 10.1415 5.90947 9.7669 6.32075 9.56883L23.3492 1.36838C23.7605 1.17032 24.2395 1.17032 24.6508 1.36838Z" stroke="black"/>
<line x1="24.0051" y1="0.98544" x2="13.7758" y2="45.451" stroke="black" stroke-width="0.75"/>
<line x1="41.9011" y1="9.92491" x2="13.7046" y2="45.5994" stroke="black" stroke-width="0.75"/>
<line x1="24.0253" y1="1.0083" x2="1.44068" y2="29.5064" stroke="black" stroke-width="0.75"/>
<line x1="34.2976" y1="45.1567" x2="5.62366" y2="9.93216" stroke="black" stroke-width="0.75"/>
<line x1="34.0695" y1="45.291" x2="42.152" y2="9.92426" stroke="black" stroke-width="0.75"/>
<path d="M42.0039 10.3828C42.211 10.3828 42.3789 10.2149 42.3789 10.0078C42.3789 9.80074 42.211 9.63283 42.0039 9.63281L42.0039 10.3828ZM42.0039 9.63281L6.00491 9.62988L6.00485 10.3799L42.0039 10.3828L42.0039 9.63281Z" fill="black"/>
<path d="M13.6016 45.1124C13.6475 45.3144 13.8485 45.4409 14.0504 45.395C14.2524 45.3491 14.3789 45.1481 14.333 44.9462L13.6016 45.1124ZM14.333 44.9462L6.37055 9.92321L5.63921 10.0895L13.6016 45.1124L14.333 44.9462Z" fill="black"/>
<path d="M46.4493 30.3711C46.6564 30.3711 46.8243 30.2031 46.8242 29.996C46.8242 29.7889 46.6562 29.6211 46.4491 29.6211L46.4493 30.3711ZM46.4491 29.6211L1.76065 29.6302L1.7608 30.3802L46.4493 30.3711L46.4491 29.6211Z" fill="black"/>
<line x1="24.0055" y1="1.0009" x2="34.0016" y2="45.5458" stroke="black" stroke-width="0.75"/>
<line x1="24.027" y1="1.03385" x2="46.5602" y2="29.8893" stroke="black" stroke-width="0.75"/>
</svg>
