<svg width="160" height="160" viewBox="0 0 160 160" fill="none" xmlns="http://www.w3.org/2000/svg">
<rect width="160" height="160" fill="#910031"/>
<path d="M108.523 35.0557L133.863 77.8684L107.966 121.62L107.874 121.562L108.37 120.687L132.632 77.9833L132.658 77.9322L108.304 35.0621L108.523 35.0557Z" fill="white"/>
<path d="M106.616 34.5489L130.971 77.419L130.944 77.4701L130.865 77.419L129.885 77.4318L34.7317 78.3447L105.829 34.7915L105.815 34.5936L106.616 34.5489Z" fill="#910031"/>
<path d="M132.633 77.9808L108.371 120.685L107.769 120.327L58.9805 117.704L131.573 78.4214V77.9425L132.553 77.9298L132.633 77.9808Z" fill="#910031"/>
<path d="M131.572 77.945V78.4238L58.9785 117.706L58.0915 117.655L36.1401 79.0239L36.1666 79.0111L36.4182 78.8579L131.572 77.945Z" fill="#910031"/>
<path d="M108.664 35.0446L108.523 35.058L108.516 35.0446H108.664Z" fill="white"/>
<path d="M108.516 35.0446L108.522 35.058L108.304 35.0647L108.291 35.0446H108.516Z" fill="white"/>
<path d="M60.3116 121.56H107.875L107.968 121.617L106.895 123.424H52.9636L25.9944 77.866L52.9636 32.3081H106.895L108.517 35.0405H108.292L107.875 34.3H60.4109H58.3058L33.5211 77.9298L57.7563 120.589L58.3058 121.56H60.3116Z" fill="white"/>
<path d="M108.304 35.0637L107.503 35.1084L58.563 37.7451L60.0922 35.0446H108.291L108.304 35.0637Z" fill="white"/>
<path d="M58.982 117.705L107.77 120.329H59.6109L58.095 117.654L58.982 117.705Z" fill="white"/>
<path d="M36.4204 78.8567L36.1688 79.0099L36.1423 79.0227L35.626 78.1161L58.5637 37.7422L107.504 35.1055L107.517 35.3034L36.4204 78.8567Z" fill="#910031"/>
<path d="M60.0914 35.0446L58.5622 37.7451L57.5295 37.8025L59.0918 35.0446H60.0914Z" fill="white"/>
<path d="M58.0923 117.655L59.6083 120.33H58.1983L56.636 117.578L58.0923 117.655Z" fill="white"/>
<path d="M108.1 121.306V121.306C107.435 122.426 106.229 123.113 104.927 123.113H56.5168C54.3965 123.113 52.4337 121.994 51.3536 120.169L27.9363 80.6115C26.8205 78.7266 26.8205 76.3834 27.9363 74.4984L51.3536 34.9407C52.4337 33.1161 54.3966 31.9971 56.5168 31.9971H103.85C105.82 31.9971 107.644 33.0355 108.65 34.7295V34.7295L108.656 34.7423L132.188 74.4987C133.304 76.3835 133.304 78.7264 132.188 80.6112L108.1 121.306Z" stroke="white" stroke-width="5.36635" stroke-miterlimit="10"/>
<path d="M108.302 35.0596L132.656 77.9297L132.629 77.9808L108.368 120.685L107.871 121.56H60.3078H58.302L57.7525 120.589L33.5173 77.9297L58.302 34.2999H60.4071H107.871L108.288 35.0404" stroke="white" stroke-width="1.58032" stroke-miterlimit="10"/>
<path d="M59.0918 35.0446L57.5295 37.8025L58.5622 37.7451L107.503 35.1084L108.304 35.0637L108.522 35.0573L108.661 35.0446" stroke="white" stroke-width="0.94819" stroke-miterlimit="10"/>
<path d="M108.663 35.0446H108.517H108.292H60.0929H59.0933" stroke="white" stroke-width="0.672475" stroke-miterlimit="10"/>
<path d="M60.4106 121.747L60.3113 121.562L59.6096 120.33L58.0937 117.655L36.1423 79.0238L35.626 78.1172L58.5637 37.7433L60.0929 35.0428L60.4106 34.4874" stroke="white" stroke-width="2.52851" stroke-miterlimit="10"/>
<path d="M36.1694 79.0112L36.421 78.858L107.518 35.3047" stroke="white" stroke-width="4.74095" stroke-miterlimit="10"/>
<path d="M36.0742 78.8619L36.4185 78.8555L131.572 77.9425L132.552 77.9298" stroke="white" stroke-width="4.74095" stroke-miterlimit="10"/>
<path d="M58.8215 117.79L58.9804 117.707L131.573 78.425" stroke="white" stroke-width="4.74095" stroke-miterlimit="10"/>
<path d="M58.1983 120.33H59.6083H107.768L58.9794 117.706L58.0923 117.655L56.636 117.578L58.1983 120.33Z" stroke="white" stroke-width="0.94819" stroke-miterlimit="10"/>
<path d="M59.7114 120.617L106.143 121.078" stroke="white" stroke-width="0.94819" stroke-miterlimit="10"/>
<path d="M60.0051 35.7031L102.816 33.6091" stroke="white" stroke-width="4.51903" stroke-miterlimit="10"/>
</svg>
