<svg width="48" height="48" viewBox="0 0 48 48" fill="none" xmlns="http://www.w3.org/2000/svg">
<g clip-path="url(#clip0_170_28377)">
<rect width="48" height="48" rx="12" fill="#D6001C"/>
<path d="M24 48C37.255 48 48 37.255 48 24C48 10.745 37.255 0 24 0C10.745 0 0 10.745 0 24C0 37.255 10.745 48 24 48Z" fill="#D6001C"/>
<path d="M13.65 13.169V21.333C14.893 19.851 16.383 19.105 18.111 19.105C19.001 19.105 19.798 19.275 20.513 19.612C21.23 19.947 21.766 20.377 22.128 20.899C22.492 21.426 22.738 22.003 22.871 22.639C23.003 23.272 23.069 24.257 23.069 25.593V34.322H19.207V26.46C19.207 24.9 19.137 23.912 18.99 23.492C18.8523 23.0806 18.5791 22.728 18.215 22.492C17.843 22.241 17.38 22.117 16.821 22.117C16.181 22.117 15.607 22.277 15.108 22.595C14.598 22.915 14.232 23.393 14 24.032C13.764 24.672 13.646 25.617 13.65 26.868L13.646 34.322H9.789V13.169H13.651M28.857 13.169V21.333C30.101 19.851 31.59 19.105 33.317 19.105C34.204 19.105 35.007 19.275 35.723 19.612C36.437 19.947 36.973 20.377 37.333 20.899C37.6963 21.4225 37.9491 22.0145 38.076 22.639C38.209 23.272 38.275 24.257 38.275 25.593V34.322H34.417V26.46C34.417 24.9 34.344 23.912 34.197 23.492C34.0593 23.08 33.7852 22.7273 33.42 22.492C33.052 22.241 32.585 22.117 32.026 22.117C31.387 22.117 30.813 22.277 30.313 22.595C29.81 22.915 29.442 23.393 29.207 24.032C28.975 24.672 28.857 25.617 28.857 26.868V34.322H25V13.169H28.857Z" fill="#FEFEFE"/>
</g>
<defs>
<clipPath id="clip0_170_28377">
<rect width="48" height="48" rx="12" fill="white"/>
</clipPath>
</defs>
</svg>
