<svg width="48" height="48" viewBox="0 0 48 48" fill="none" xmlns="http://www.w3.org/2000/svg">
<rect width="48" height="48" rx="12" fill="url(#paint0_linear_170_28355)"/>
<path fill-rule="evenodd" clip-rule="evenodd" d="M10.864 23.7467C17.8605 20.6984 22.5259 18.6888 24.8603 17.7179C31.5254 14.9457 32.9103 14.4641 33.813 14.4482C34.0115 14.4447 34.4554 14.4939 34.743 14.7272C34.9858 14.9243 35.0526 15.1904 35.0846 15.3772C35.1165 15.564 35.1563 15.9895 35.1247 16.322C34.7635 20.117 33.2007 29.3263 32.4056 33.5768C32.0692 35.3753 31.4067 35.9783 30.7654 36.0373C29.3717 36.1656 28.3134 35.1162 26.9635 34.2314C24.8512 32.8467 23.6578 31.9848 21.6075 30.6336C19.2379 29.0721 20.774 28.2139 22.1244 26.8113C22.4778 26.4443 28.6186 20.8587 28.7375 20.3521C28.7523 20.2887 28.7661 20.0525 28.6258 19.9277C28.4855 19.803 28.2783 19.8457 28.1289 19.8796C27.917 19.9277 24.5426 22.158 18.0055 26.5707C17.0477 27.2284 16.1801 27.5489 15.4028 27.5321C14.5459 27.5136 12.8975 27.0476 11.6721 26.6493C10.1691 26.1607 8.97456 25.9024 9.07858 25.0727C9.13276 24.6405 9.72791 24.1985 10.864 23.7467Z" fill="white"/>
<defs>
<linearGradient id="paint0_linear_170_28355" x1="24" y1="0" x2="24" y2="47.644" gradientUnits="userSpaceOnUse">
<stop stop-color="#2AABEE"/>
<stop offset="1" stop-color="#229ED9"/>
</linearGradient>
</defs>
</svg>
