<svg width="48" height="49" viewBox="0 0 48 49" fill="none" xmlns="http://www.w3.org/2000/svg">
<path d="M24.8817 1.75861L45.3559 16.634C45.8816 17.016 46.1016 17.693 45.9008 18.311L38.0803 42.3799C37.8795 42.998 37.3036 43.4164 36.6538 43.4164H11.3462C10.6964 43.4164 10.1205 42.998 9.91965 42.3799L2.0992 18.311C1.89839 17.693 2.11838 17.016 2.64411 16.634L23.1183 1.75861C23.6441 1.37664 24.3559 1.37664 24.8817 1.75861Z" stroke="black"/>
<line x1="24.0081" y1="43.0025" x2="45.9995" y2="16.9975" stroke="black" stroke-width="0.75"/>
<line x1="24.0081" y1="43.0038" x2="2.01979" y2="16.998" stroke="black" stroke-width="0.75"/>
<line x1="37.6401" y1="43.0958" x2="23.9987" y2="1.84439" stroke="black" stroke-width="0.75"/>
<line x1="10.6434" y1="42.884" x2="23.9966" y2="1.84838" stroke="black" stroke-width="0.75"/>
<line x1="2.04395" y1="17.3779" x2="45.9906" y2="17.3779" stroke="black" stroke-width="0.75"/>
</svg>
