<svg width="48" height="49" viewBox="0 0 48 49" fill="none" xmlns="http://www.w3.org/2000/svg">
<path d="M25.4004 2.11809L44.4189 34.4256C45.0566 35.5089 44.2756 36.875 43.0185 36.875H4.98148C3.72445 36.875 2.94342 35.5089 3.58111 34.4256L22.5996 2.11809C23.228 1.05057 24.772 1.05057 25.4004 2.11809Z" stroke="black" stroke-width="0.75"/>
<path d="M25.4004 2.11809L44.4189 34.4256C45.0566 35.5089 44.2756 36.875 43.0185 36.875H4.98148C3.72445 36.875 2.94342 35.5089 3.58111 34.4256L22.5996 2.11809C23.228 1.05057 24.772 1.05057 25.4004 2.11809Z" stroke="black" stroke-width="0.75"/>
<path d="M22.6946 46.6787L4.4742 14.4889C3.9082 13.4889 4.63057 12.25 5.77959 12.25L42.2204 12.25C43.3694 12.25 44.0918 13.4889 43.5258 14.4889L25.3054 46.6787C24.731 47.6936 23.269 47.6936 22.6946 46.6787Z" stroke="black"/>
<rect x="3.375" y="12.375" width="41.25" height="24.25" rx="1.625" stroke="black" stroke-width="0.75"/>
<path d="M24.75 1.51036L43.5346 12.3557C43.9987 12.6236 44.2846 13.1188 44.2846 13.6547V35.3453C44.2846 35.8812 43.9987 36.3764 43.5346 36.6443L24.75 47.4896C24.2859 47.7576 23.7141 47.7576 23.25 47.4896L4.46539 36.6443C4.00129 36.3764 3.71539 35.8812 3.71539 35.3453V13.6547C3.71539 13.1188 4.00129 12.6236 4.46539 12.3557L23.25 1.51036C23.7141 1.24241 24.2859 1.24241 24.75 1.51036Z" stroke="black"/>
</svg>
