<svg width="48" height="48" viewBox="0 0 48 48" fill="none" xmlns="http://www.w3.org/2000/svg">
<rect width="48" height="48" rx="9.6" fill="#FF0000"/>
<path d="M40.4381 15.7565C40.0427 14.2878 38.8846 13.1298 37.4159 12.7343C34.7327 12 23.9998 12 23.9998 12C23.9998 12 13.267 12 10.5837 12.7061C9.14327 13.1015 7.957 14.2878 7.56158 15.7565C6.85547 18.4397 6.85547 24.0039 6.85547 24.0039C6.85547 24.0039 6.85547 29.5963 7.56158 32.2512C7.957 33.7199 9.11502 34.878 10.5837 35.2734C13.2952 36.0077 23.9998 36.0077 23.9998 36.0077C23.9998 36.0077 34.7327 36.0077 37.4159 35.3016C38.8846 34.9062 40.0427 33.7482 40.4381 32.2795C41.1442 29.5963 41.1442 24.0321 41.1442 24.0321C41.1442 24.0321 41.1724 18.4397 40.4381 15.7565Z" fill="white"/>
<path d="M20.5822 29.1443L29.5075 24.0038L20.5822 18.8633V29.1443Z" fill="#FF0000"/>
</svg>
